<?xml version="1.0" encoding="utf-8"?>
<!-- Generator: Adobe Illustrator 17.0.0, SVG Export Plug-In . SVG Version: 6.00 Build 0)  -->
<!DOCTYPE svg PUBLIC "-//W3C//DTD SVG 1.1//EN" "http://www.w3.org/Graphics/SVG/1.1/DTD/svg11.dtd">
<svg version="1.1" id="Layer_1" xmlns="http://www.w3.org/2000/svg" xmlns:xlink="http://www.w3.org/1999/xlink" x="0px" y="0px"
	 width="836px" height="670px" viewBox="0 0 836 670" enable-background="new 0 0 836 670" xml:space="preserve">
<g>
	<g>
		<path fill="#42B4D6" d="M554.542,225.994l-0.527-0.119l-0.244-0.136c-58.526-33.576-124.696-69.149-135.974-71.627
			c-11.277,2.478-77.463,38.051-135.989,71.627l-0.306,0.136l-0.384,0.119c-0.216,0.109-22.063,11.031-22.063,31.753v77.569
			c27.792,15.288,52.457,29.396,55.161,30.944c4.101,2.147,33.28,18.563,33.28,50.755v47.237
			c34.837,19.565,63.151,34.456,70.335,36.231c7.184-1.775,35.498-16.665,70.335-36.23v-47.238
			c0-32.193,29.186-48.606,33.287-50.753c2.71-1.552,27.368-15.656,55.153-30.941v-77.574
			C576.605,237.25,554.727,226.089,554.542,225.994z"/>
	</g>
	<g>
		<path fill="#007194" d="M347.495,453.858v20.512c32.427,18.215,64.172,35.116,70.335,35.116c6.164,0,37.909-16.899,70.335-35.113
			v-20.316c-47.367,26.824-64.443,34.681-70.194,36.97C412.204,488.731,395.12,480.837,347.495,453.858z"/>
		<path fill="#007194" d="M558.223,218.01c0,0-127.023-72.875-140.393-72.875c-13.366,0-140.389,72.873-140.389,72.873
			s-26.743,13.245-26.743,39.74c0,17.278,0,45.367,0,72.989c5.674,3.097,11.294,6.191,16.713,9.192v-82.181
			c0-14.36,16.213-23.127,17.446-23.797l0.568-0.133l0.748-0.351c0.292-0.166,29.771-17.029,61.282-34.264
			c48.04-26.27,64.859-33.644,70.375-35.706c5.517,2.062,22.267,9.434,70.307,35.709c31.511,17.236,60.92,34.098,61.214,34.264
			l0.324,0.212l1.12,0.267c1.166,0.628,17.454,9.404,17.454,23.799v82.187c5.419-3.001,11.039-6.095,16.713-9.192
			c0-27.624,0-55.714,0-72.992C584.962,231.252,558.223,218.01,558.223,218.01z"/>
	</g>
	<g>
		<path fill="#FFFFFF" d="M518.109,298.237c0,2.282-1.851,4.132-4.133,4.132H321.684c-2.283,0-4.133-1.85-4.133-4.132v-30.733
			c0-2.282,1.851-4.132,4.133-4.132h192.292c2.283,0,4.133,1.85,4.133,4.132V298.237z"/>
	</g>
	<g>
		<path fill="#FFFFFF" d="M518.109,356.73c0,2.284-1.851,4.135-4.133,4.135H321.684c-2.283,0-4.133-1.851-4.133-4.135v-30.728
			c0-2.284,1.851-4.135,4.133-4.135h192.292c2.283,0,4.133,1.851,4.133,4.135V356.73z"/>
	</g>
	<g>
		<path fill="#007194" d="M456.022,385.935c2.292,0,3.591,1.163,3.591,3.446v31.849c0,2.282-1.299,3.703-3.591,3.703h-76.386
			c-2.292,0-3.589-1.421-3.589-3.703V389.38c0-2.282,1.298-3.446,3.589-3.446H456.022z"/>
	</g>
	<g>
		<circle fill="#42B4D6" cx="338.721" cy="341.795" r="7.799"/>
	</g>
	<g>
		<circle fill="#42B4D6" cx="361.005" cy="341.795" r="7.799"/>
	</g>
	<g>
		<circle fill="#42B4D6" cx="383.29" cy="341.795" r="7.799"/>
	</g>
	<g>
		<circle fill="#42B4D6" cx="405.574" cy="341.795" r="7.799"/>
	</g>
	<g>
		<circle fill="#42B4D6" cx="427.858" cy="341.795" r="7.799"/>
	</g>
	<g>
		<path fill="#76D691" d="M667.832,659.751c-11.852-2.932-80.869-41.552-142.208-78.011c-1.461-1.028-15.871-11.566-15.871-25.608
			V417.015c0-20.723,21.5-31.645,21.717-31.753l0.21-0.12l0.219-0.136c58.523-33.573,124.666-69.149,135.944-71.624
			c11.278,2.475,77.425,38.051,135.951,71.624l0.235,0.136l0.869,0.12c0.185,0.095,22.406,11.256,22.406,31.753v139.116
			c0,13.996-15.002,24.509-16.572,25.614C749.393,618.202,679.687,656.819,667.832,659.751z"/>
	</g>
	<g>
		<path fill="#308A4F" d="M667.832,322.762c5.517,2.065,22.268,9.437,70.31,35.711c31.511,17.236,60.92,34.098,61.211,34.264
			l0.324,0.209l0.075,0.269c1.167,0.628,16.41,9.401,16.41,23.797v139.116c0,7.905-7.991,15.682-11.383,18.12
			c-4.246,2.519-32.826,19.588-63.532,37.033c-50.121,28.476-67.639,36.663-73.534,39.008c-5.895-2.342-23.464-10.527-73.552-38.984
			c-30.709-17.445-59.751-34.539-63.997-37.058c-3.395-2.437-12.054-10.215-12.054-18.12V417.013
			c0-14.355,15.863-23.122,17.098-23.791l0.397-0.136l0.662-0.348c0.294-0.169,29.685-17.007,61.191-34.24
			C645.532,332.203,662.315,324.829,667.832,322.762 M667.832,304.403c-13.365,0-140.038,72.873-140.038,72.873
			s-26.397,13.242-26.397,39.74c0,33.124,0,105.995,0,139.116c0,19.874,19.711,33.124,19.711,33.124s133.534,79.494,146.899,79.494
			c13.37,0,147.339-79.491,147.339-79.491s20.315-13.253,20.315-33.127c0-33.122,0-105.992,0-139.113
			c0-26.498-27.085-39.743-27.085-39.743S681.202,304.403,667.832,304.403L667.832,304.403z"/>
	</g>
	<g>
		<rect x="610.032" y="416.576" fill="#FFFFFF" width="111.421" height="136.491"/>
	</g>
	<g>
		<path fill="#308A4F" d="M713.812,383.149h-90.946c-10.106,0-18.405,8.619-18.405,16.976v173.473c0,8.359,8.365,15.68,16.721,15.68
			h92.63c8.357,0,13.212-7.321,13.212-15.68V400.125C727.024,391.769,723.92,383.149,713.812,383.149z M667.832,580.402
			c-5.536,0-10.024-4.486-10.024-10.022s4.488-10.024,10.024-10.024s10.024,4.488,10.024,10.024S673.367,580.402,667.832,580.402z
			 M716.268,550.281H615.603l-0.075-130.92h100.74V550.281z"/>
	</g>
	<g>
		<path fill="#76D691" d="M623.96,431.101c0,0,0,10.791,0,15.598c0,4.807,3.762,3.303,3.762,3.303s10.791,0,15.598,0
			c4.804,0,5.71-3.303,5.71-3.303s0-10.794,0-15.598c0-4.807-5.228-3.383-5.228-3.383s-11.273,0-16.079,0
			C622.912,427.718,623.96,431.101,623.96,431.101z"/>
	</g>
	<g>
		<path fill="#FF7954" d="M167.828,659.749c-11.855-2.932-81.568-41.552-142.904-78.014c-1.464-1.023-16.568-11.561-16.568-25.603
			V417.015c0-20.725,22.193-31.647,22.411-31.756l0.558-0.12l0.391-0.136c58.529-33.576,124.758-69.146,136.034-71.627
			c11.278,2.481,77.471,38.051,135.997,71.627l0.256,0.136l0.182,0.12c0.185,0.095,21.721,11.256,21.721,31.756v139.113
			c0,13.996-14.31,24.509-15.877,25.614C248.692,618.202,179.681,656.819,167.828,659.749z"/>
	</g>
	<path fill="#C44A37" d="M77.995,461.144V569.78h178.274V461.144H77.995z M97.494,508.498h8.357v11.142h-8.357V508.498z
		 M119.778,555.852c0,0-7.66,0-14.347,0c-8.914,0-7.938-9.99-7.938-9.99v-15.08h8.357v13.928h13.928V555.852z M119.778,480.643
		H105.85v16.713h-8.357v-16.118c0,0-0.977-8.952,7.938-8.952c6.686,0,14.347,0,14.347,0V480.643z M158.775,555.852h-19.499V544.71
		h19.499V555.852z M158.775,480.643h-19.499v-8.357h19.499V480.643z M197.773,555.852h-22.284V544.71h22.284V555.852z
		 M197.773,480.643h-22.284v-8.357h22.284V480.643z M236.77,545.863c0,0,0.139,9.99-8.776,9.99c-6.684,0-16.294,0-16.294,0V544.71
		h16.713v-13.928h8.357V545.863z M236.77,519.64h-8.357v-11.142h8.357V519.64z M236.77,497.356h-8.357v-16.713h-16.713v-8.357
		c0,0,9.611,0,16.294,0c8.914,0,8.776,8.952,8.776,8.952V497.356z"/>
	<g>
		<path fill="#C44A37" d="M167.828,322.762c5.517,2.062,22.268,9.434,70.307,35.709c31.511,17.235,60.923,34.098,61.214,34.264
			l0.324,0.212l0.773,0.267c1.167,0.628,17.105,9.404,17.105,23.799v139.116c0,7.902-8.688,15.682-12.083,18.12
			c-4.249,2.522-33.213,19.61-63.919,37.058c-50.091,28.456-67.773,36.639-73.668,38.984c-5.892-2.345-23.551-10.527-73.639-38.984
			c-30.709-17.451-59.098-34.542-63.342-37.058c-3.398-2.437-11.401-10.215-11.401-18.117V417.015
			c0-14.36,15.169-23.13,16.402-23.797l0.044-0.133l0.487-0.351c0.294-0.166,29.641-17.029,61.152-34.264
			C145.624,332.198,162.312,324.823,167.828,322.762 M167.828,304.4c-13.367,0-140.737,72.873-140.737,72.873S0,390.517,0,417.015
			C0,450.14,0,523.01,0,556.129c0,19.877,20.405,33.124,20.405,33.124s133.883,79.497,147.25,79.497
			c13.37,0,146.814-79.494,146.814-79.494s19.795-13.25,19.795-33.124c0-33.122,0-105.992,0-139.116
			c0-26.498-26.392-39.743-26.392-39.743S181.198,304.4,167.828,304.4L167.828,304.4z"/>
	</g>
	<g>
		<path fill="#FFFFFF" d="M254.098,391.506H84.902c0,0-15.263-0.197-15.263,13.173v163.182c0,13.996,15.198,13.061,15.198,13.061
			h170.445c0,0,12.13,0.951,12.13-13.044V404.679C267.411,404.679,267.188,391.506,254.098,391.506z M203.344,408.219
			c61.282,0,52.715,0,52.715,0v16.713h-52.715V408.219z M80.78,408.219h111.421v16.713H80.78V408.219z M256.059,566.995H80.78
			V433.289h175.278V566.995z"/>
	</g>
	<g>
		<rect x="97.494" y="444.431" fill="#C44A37" width="41.783" height="8.357"/>
	</g>
	<g>
		<rect x="220.057" y="444.431" fill="#C44A37" width="16.713" height="8.357"/>
	</g>
	<g>
		<rect x="197.773" y="444.431" fill="#C44A37" width="13.928" height="8.357"/>
	</g>
	<g>
		<path fill="#FFFFFF" d="M156.314,533.608c-1.091,0-2.184-0.375-3.077-1.142l-17.809-15.34c-1.045-0.895-1.643-2.201-1.643-3.574
			c0-1.374,0.599-2.679,1.643-3.577l17.809-15.337c1.972-1.703,4.954-1.477,6.657,0.495c1.7,1.975,1.477,4.956-0.498,6.659
			l-13.659,11.759l13.659,11.76c1.975,1.703,2.198,4.682,0.498,6.657C158.958,533.053,157.641,533.608,156.314,533.608z"/>
	</g>
	<g>
		<path fill="#FFFFFF" d="M179.343,533.608c-1.328,0-2.644-0.555-3.58-1.64c-1.7-1.975-1.477-4.954,0.498-6.657l13.659-11.76
			l-13.659-11.762c-1.975-1.7-2.201-4.682-0.498-6.657c1.7-1.975,4.679-2.198,6.657-0.495l17.809,15.337
			c1.042,0.897,1.64,2.203,1.64,3.577c0,1.374-0.598,2.68-1.64,3.574l-17.809,15.34
			C181.528,533.233,180.431,533.608,179.343,533.608z"/>
	</g>
</g>
</svg>
