<?xml version="1.0" encoding="UTF-8" standalone="no"?>
<!-- Created with Inkscape (http://www.inkscape.org/) -->

<svg
   xmlns:dc="http://purl.org/dc/elements/1.1/"
   xmlns:cc="http://creativecommons.org/ns#"
   xmlns:rdf="http://www.w3.org/1999/02/22-rdf-syntax-ns#"
   xmlns:svg="http://www.w3.org/2000/svg"
   xmlns="http://www.w3.org/2000/svg"
   xmlns:sodipodi="http://sodipodi.sourceforge.net/DTD/sodipodi-0.dtd"
   xmlns:inkscape="http://www.inkscape.org/namespaces/inkscape"
   width="382.32632"
   height="106.18182"
   id="svg2"
   version="1.1"
   inkscape:version="0.48.4 r9939"
   sodipodi:docname="logo-lab.svg">
  <defs
     id="defs4" />
  <sodipodi:namedview
     id="base"
     pagecolor="#ffffff"
     bordercolor="#666666"
     borderopacity="1.0"
     inkscape:pageopacity="0.0"
     inkscape:pageshadow="2"
     inkscape:zoom="0.35"
     inkscape:cx="239.61039"
     inkscape:cy="-277.14285"
     inkscape:document-units="px"
     inkscape:current-layer="layer1"
     showgrid="false"
     fit-margin-top="0"
     fit-margin-left="0"
     fit-margin-right="0"
     fit-margin-bottom="0"
     inkscape:window-width="1366"
     inkscape:window-height="709"
     inkscape:window-x="0"
     inkscape:window-y="25"
     inkscape:window-maximized="1" />
  <metadata
     id="metadata7">
    <rdf:RDF>
      <cc:Work
         rdf:about="">
        <dc:format>image/svg+xml</dc:format>
        <dc:type
           rdf:resource="http://purl.org/dc/dcmitype/StillImage" />
        <dc:title />
      </cc:Work>
    </rdf:RDF>
  </metadata>
  <g
     inkscape:label="Camada 1"
     inkscape:groupmode="layer"
     id="layer1"
     transform="translate(-110.38962,-154.7518)">
    <g
       transform="scale(1.0103291,0.9897765)"
       style="font-size:122.67140961px;font-style:normal;font-variant:normal;font-weight:normal;font-stretch:normal;line-height:125%;letter-spacing:0px;word-spacing:0px;fill:#000000;fill-opacity:1;stroke:none;font-family:Digital-7;-inkscape-font-specification:Digital-7"
       id="text2985">
      <path
         d="m 138.1517,168.70399 5.03144,6.28931 -5.03144,29.35009 -3.89338,2.99491 -3.65379,-4.25277 5.45073,-32.70439 2.09644,-1.67715 m -4.19287,41.03023 3.35429,4.19287 -4.37256,28.87091 -6.94819,5.51063 -1.67715,-2.51572 5.45074,-33.12368 4.19287,-2.93501 m 0.17969,33.90236 32.76429,0.0599 4.73195,6.28931 -3.35429,2.09643 -38.9338,0 -2.09644,-2.51572 6.88829,-5.92991"
         style="font-family:alarm clock;-inkscape-font-specification:alarm clock"
         id="path2994" />
      <path
         d="m 214.46194,166.18827 39.35308,0 2.45583,2.45582 -7.00809,5.51063 -33.06378,0 -4.67205,-6.2893 2.93501,-1.67715 m -4.19287,2.51572 5.03144,6.28931 -5.03144,29.35009 -3.89338,2.99491 -3.65379,-4.25277 5.45073,-32.70439 2.09644,-1.67715 m 46.90025,0.83857 2.09643,2.51573 -5.03144,31.86581 -4.61216,3.77359 -3.3543,-3.77359 4.07308,-29.0506 6.82839,-5.33094 m -11.97963,35.22012 3.59389,3.95327 -4.73196,4.37257 -16.53189,0 1.13807,-8.32584 16.53189,0 m -34.08205,8.32584 -4.19287,-4.55226 5.03144,-3.77358 15.75322,0 -1.19796,8.32584 -15.39383,0 m -5.03144,-3.3543 3.35429,4.19287 -4.37256,28.87091 -6.94819,5.51063 -1.67715,-2.51572 5.45074,-33.12368 4.19287,-2.93501 m 43.12666,0.41929 3.77359,4.19287 -5.45073,32.82419 -2.51573,1.55735 -4.91164,-5.92992 4.97154,-28.9308 4.13297,-3.71369"
         style="font-family:alarm clock;-inkscape-font-specification:alarm clock"
         id="path2996" />
      <path
         d="m 282.14684,168.70399 5.03145,6.28931 -5.03145,29.35009 -3.89338,2.99491 -3.65378,-4.25277 5.45073,-32.70439 2.09643,-1.67715 m 34.92062,36.05869 3.59389,3.95327 -4.73195,4.37257 -16.53189,0 1.13807,-8.32584 16.53188,0 m -34.08204,8.32584 -4.19287,-4.55226 5.03144,-3.77358 15.75322,0 -1.19797,8.32584 -15.39382,0 m -5.03145,-3.3543 3.3543,4.19287 -4.37257,28.87091 -6.94818,5.51063 -1.67715,-2.51572 5.45073,-33.12368 4.19287,-2.93501 m 43.12667,0.41929 3.77358,4.19287 -5.45073,32.82419 -2.51572,1.55735 -4.91165,-5.92992 4.97155,-28.9308 4.13297,-3.71369 m -42.94697,33.48307 32.76429,0.0599 4.73195,6.28931 -3.3543,2.09643 -38.93379,0 -2.09644,-2.51572 6.88829,-5.92991"
         style="font-family:alarm clock;-inkscape-font-specification:alarm clock"
         id="path2998" />
      <path
         d="m 358.45708,166.18827 39.35309,0 2.45582,2.45582 -7.00808,5.51063 -33.06378,0 -4.67205,-6.2893 2.935,-1.67715 m -4.19287,2.51572 5.03145,6.28931 -5.03145,29.35009 -3.89338,2.99491 -3.65378,-4.25277 5.45073,-32.70439 2.09643,-1.67715 m 46.90026,0.83857 2.09643,2.51573 -5.03144,31.86581 -4.61216,3.77359 -3.3543,-3.77359 4.07308,-29.0506 6.82839,-5.33094 m -45.22311,35.22012 33.24348,0 3.59388,3.95327 -4.73195,4.37257 -32.94398,0 -4.19287,-4.55226 5.03144,-3.77358 m -5.87002,4.97154 3.3543,4.19287 -4.37256,28.87091 -6.94819,5.51063 -1.67715,-2.51572 5.45073,-33.12368 4.19287,-2.93501 m 43.12667,0.41929 3.77358,4.19287 -5.45073,32.82419 -2.51572,1.55735 -4.91165,-5.92992 4.97155,-28.9308 4.13297,-3.71369 m -42.94697,33.48307 32.76429,0.0599 4.73195,6.28931 -3.3543,2.09643 -38.93379,0 -2.09644,-2.51572 6.88829,-5.92991"
         style="fill:#800080;font-family:alarm clock;-inkscape-font-specification:alarm clock"
         id="path3000" />
      <path
         d="m 430.57446,166.18827 39.35308,0 2.45582,2.45582 -7.00808,5.51063 -33.06378,0 -4.67205,-6.2893 2.93501,-1.67715 m -4.19287,2.51572 5.03144,6.28931 -5.03144,29.35009 -3.89338,2.99491 -3.65379,-4.25277 5.45073,-32.70439 2.09644,-1.67715 m 1.67714,36.05869 33.24348,0 3.59389,3.95327 -4.73196,4.37257 -32.94398,0 -4.19287,-4.55226 5.03144,-3.77358 m 37.25665,5.39083 3.77359,4.19287 -5.45074,32.82419 -2.51572,1.55735 -4.91165,-5.92992 4.97155,-28.9308 4.13297,-3.71369 m -42.94697,33.48307 32.76429,0.0599 4.73195,6.28931 -3.3543,2.09643 -38.93379,0 -2.09644,-2.51572 6.88829,-5.92991"
         style="fill:#800080;font-family:alarm clock;-inkscape-font-specification:alarm clock"
         id="path3002" />
    </g>
  </g>
</svg>
